<svg aria-hidden="true" style="position: absolute; overflow: hidden;" version="1.1" xmlns="http://www.w3.org/2000/svg" xmlns:xlink="http://www.w3.org/1999/xlink">
<defs>
<symbol id="icon-envelope" viewBox="0 0 32 32">
<path d="M29 4h-26c-1.654 0-3 1.346-3 3v18c0 1.654 1.346 3 3 3h26c1.654 0 3-1.346 3-3v-18c0-1.654-1.346-3-3-3zM29 6c0.136 0 0.265 0.028 0.383 0.077l-13.383 11.599-13.383-11.599c0.118-0.049 0.247-0.077 0.383-0.077h26zM29 26h-26c-0.552 0-1-0.448-1-1v-16.81l13.345 11.565c0.188 0.163 0.422 0.244 0.655 0.244s0.467-0.081 0.655-0.244l13.345-11.565v16.81c0 0.552-0.448 1-1 1z"></path>
</symbol>
<symbol id="icon-group-5" viewBox="0 0 32 32">
<path d="M3.602 23.020c0.112 0.127 0.172 0.287 0.169 0.45 0.006 0.107-0.015 0.213-0.060 0.312s-0.115 0.186-0.202 0.257c-0.218 0.151-0.488 0.224-0.761 0.207h-1.338v-2.853h1.31c0.259-0.016 0.515 0.051 0.726 0.189 0.084 0.065 0.152 0.147 0.196 0.239s0.064 0.193 0.058 0.294c0.008 0.157-0.046 0.312-0.152 0.436-0.102 0.113-0.242 0.192-0.399 0.223 0.177 0.029 0.338 0.116 0.452 0.244v0zM2.032 22.589h0.56c0.127 0.009 0.254-0.025 0.356-0.095 0.042-0.035 0.075-0.078 0.096-0.126s0.029-0.1 0.025-0.152c0.004-0.052-0.005-0.103-0.025-0.151s-0.053-0.092-0.094-0.127c-0.105-0.072-0.236-0.106-0.367-0.096h-0.551v0.748zM3.003 23.683c0.045-0.036 0.080-0.080 0.103-0.131s0.033-0.105 0.029-0.159c0.003-0.055-0.007-0.11-0.031-0.161s-0.059-0.096-0.105-0.132c-0.109-0.074-0.244-0.111-0.38-0.103h-0.588v0.784h0.595c0.134 0.007 0.266-0.028 0.376-0.099v0z"></path>
<path d="M6.28 24.246l-0.729-1.115h-0.274v1.115h-0.627v-2.853h1.187c0.299-0.019 0.595 0.068 0.826 0.243 0.166 0.155 0.266 0.359 0.282 0.575s-0.053 0.431-0.194 0.605c-0.146 0.154-0.346 0.256-0.566 0.29l0.776 1.14h-0.682zM5.277 22.742h0.513c0.356 0 0.535-0.144 0.535-0.432 0.003-0.059-0.006-0.118-0.029-0.173s-0.057-0.105-0.102-0.148c-0.113-0.086-0.257-0.127-0.404-0.116h-0.519l0.006 0.868z"></path>
<path d="M9.708 23.672h-1.25l-0.22 0.574h-0.657l1.148-2.821h0.711l1.143 2.821h-0.657l-0.216-0.574zM9.54 23.24l-0.457-1.204-0.457 1.204h0.913z"></path>
<path d="M13.998 24.246h-0.622l-1.396-1.94v1.94h-0.621v-2.853h0.621l1.396 1.951v-1.951h0.622v2.853z"></path>
<path d="M17.551 23.563c-0.129 0.215-0.325 0.391-0.563 0.503-0.271 0.125-0.572 0.187-0.875 0.18h-1.108v-2.853h1.108c0.303-0.007 0.603 0.053 0.875 0.176 0.238 0.11 0.435 0.283 0.563 0.498 0.128 0.232 0.195 0.488 0.195 0.748s-0.067 0.516-0.195 0.748v0zM16.838 23.495c0.178-0.189 0.275-0.431 0.275-0.681s-0.098-0.491-0.275-0.681c-0.215-0.172-0.495-0.259-0.779-0.243h-0.432v1.847h0.432c0.285 0.016 0.565-0.071 0.779-0.243z"></path>
<path d="M10.097 5.526c0 0 8.035 2.777 7.864 6.797v6.798c0 0-8.028-2.779-7.861-6.798l-0.003-6.797z"></path>
<path d="M25.12 17.529c1.517-0.956 3.273-1.548 5.105-1.722v-2.128c-2.111 0.745-3.902 2.096-5.105 3.851v0z"></path>
<path d="M24.208 18.17c1.242-2.29 3.395-4.057 6.016-4.937v-6.132c0 0-11.443 3.956-11.201 9.68v9.678c0 0 0.51-0.177 1.312-0.509 0-0.309 0-0.622 0.037-0.935 0.237-2.657 1.616-5.119 3.835-6.845v0z"></path>
<path d="M23.12 21.765c0.060-0.671 0.194-1.335 0.4-1.982-1.382 1.491-2.218 3.34-2.392 5.289-0.017 0.184-0.026 0.368-0.031 0.558 0.65-0.286 1.406-0.642 2.201-1.062-0.203-0.922-0.263-1.865-0.178-2.803v0z"></path>
<path d="M23.575 21.8c-0.076 0.848-0.029 1.701 0.142 2.538 3.126-1.713 6.639-4.359 6.504-7.557v-0.279c-2.234 0.229-4.323 1.123-5.948 2.545-0.38 0.881-0.616 1.809-0.697 2.754v0z"></path>
</symbol>
<symbol id="icon-group-2" viewBox="0 0 32 32">
<path d="M14.031 1.806h-0.084c-0.129-0.008-0.258-0.011-0.388-0.014v0h-0.28c-0.244 0-0.494 0.006-0.741 0.019-0.019-0.001-0.037-0.001-0.056 0-2.243 0.127-4.44 0.688-6.471 1.651l-0.266 0.128v13.625l0.623-0.211c0.546-0.188 1.129-0.357 1.731-0.513 1.629-0.418 3.301-0.64 4.982-0.662v1.79c-0.223 0.002-0.439 0.008-0.655 0.019h-0.051c-1.294 0.071-2.577 0.268-3.833 0.588-1.59 0.398-3.124 0.996-4.566 1.779v-17.475c1.497-0.873 3.11-1.529 4.79-1.948 1.475-0.381 2.992-0.576 4.515-0.582h0.263c0.314 0.008 0.621 0.022 0.909 0.044 0.759 0.053 1.511 0.173 2.249 0.358v1.762c-0.717-0.167-1.445-0.277-2.179-0.329-0.015-0.001-0.030-0.003-0.045-0.004-0.152-0.013-0.304-0.026-0.446-0.026zM17.133 3.607c0.391 0.030 0.796 0.044 1.205 0.044 1.601-0.006 3.195-0.21 4.747-0.609 1.589-0.4 3.123-0.998 4.564-1.781v17.163c-1.498 0.873-3.111 1.529-4.792 1.948-1.475 0.379-2.992 0.574-4.515 0.581-1.154 0.009-2.304-0.126-3.425-0.404v-17.275c0.265 0.061 0.537 0.117 0.814 0.164 0.455 0.077 0.934 0.133 1.401 0.167zM25.867 3.74l-0.623 0.21c-0.573 0.192-1.15 0.365-1.731 0.518-1.691 0.434-3.428 0.657-5.173 0.663-0.406 0-0.78-0.011-1.141-0.034l-0.497-0.033v14.017l0.427 0.038c0.395 0.034 0.803 0.052 1.214 0.052 1.374-0.006 2.743-0.183 4.074-0.527 1.096-0.275 2.162-0.658 3.184-1.144l0.266-0.128v-13.63z"></path>
<path d="M5.184 25.977c-0.090-0.093-0.197-0.166-0.317-0.214s-0.247-0.071-0.376-0.066c-0.137-0.002-0.273 0.024-0.4 0.075-0.117 0.046-0.222 0.116-0.311 0.205s-0.156 0.196-0.201 0.313c-0.049 0.123-0.073 0.254-0.072 0.387v2.335c-0.006 0.165 0.026 0.328 0.092 0.479 0.055 0.12 0.135 0.226 0.233 0.313 0.093 0.079 0.203 0.135 0.321 0.166 0.114 0.032 0.231 0.048 0.349 0.049 0.13 0.001 0.259-0.027 0.377-0.081 0.117-0.051 0.222-0.124 0.311-0.216 0.087-0.091 0.156-0.197 0.204-0.313 0.050-0.118 0.075-0.244 0.075-0.372v-0.261h-0.61v0.208c0.002 0.071-0.010 0.142-0.036 0.208-0.020 0.050-0.050 0.095-0.089 0.131-0.038 0.031-0.081 0.053-0.128 0.067-0.041 0.014-0.084 0.021-0.128 0.022-0.054 0.006-0.11-0.002-0.16-0.024s-0.094-0.057-0.126-0.101c-0.058-0.094-0.086-0.203-0.081-0.313v-2.177c-0.004-0.121 0.022-0.241 0.075-0.349 0.032-0.049 0.077-0.089 0.129-0.114s0.112-0.034 0.17-0.027c0.053-0.002 0.105 0.009 0.152 0.032s0.089 0.057 0.12 0.099c0.068 0.090 0.104 0.2 0.101 0.313v0.202h0.604v-0.238c0.001-0.14-0.024-0.278-0.075-0.408-0.045-0.122-0.114-0.234-0.204-0.329v0z"></path>
<path d="M8.81 25.95c-0.195-0.164-0.44-0.255-0.694-0.257-0.124 0-0.248 0.023-0.364 0.066-0.119 0.042-0.228 0.107-0.322 0.191-0.101 0.091-0.182 0.202-0.237 0.327-0.061 0.143-0.092 0.297-0.089 0.452v2.239c-0.004 0.158 0.026 0.314 0.089 0.459 0.055 0.12 0.136 0.227 0.237 0.313 0.093 0.087 0.203 0.154 0.322 0.197 0.117 0.043 0.24 0.065 0.364 0.066s0.248-0.023 0.364-0.066c0.121-0.044 0.233-0.111 0.33-0.197 0.097-0.087 0.176-0.194 0.23-0.313 0.063-0.145 0.093-0.301 0.089-0.459v-2.239c0.003-0.155-0.027-0.31-0.089-0.452-0.054-0.123-0.133-0.235-0.23-0.327v0zM8.525 28.969c0.005 0.060-0.003 0.12-0.024 0.176s-0.054 0.107-0.097 0.148c-0.081 0.068-0.182 0.105-0.287 0.105s-0.207-0.037-0.287-0.105c-0.043-0.041-0.076-0.092-0.097-0.148s-0.029-0.116-0.024-0.176v-2.239c-0.005-0.060 0.003-0.12 0.024-0.176s0.054-0.107 0.097-0.148c0.081-0.068 0.182-0.105 0.287-0.105s0.207 0.037 0.287 0.105c0.043 0.041 0.076 0.092 0.097 0.148s0.029 0.116 0.024 0.176v2.239z"></path>
<path d="M13.572 29.969v-4.239h-0.587l-0.771 2.244h-0.011l-0.777-2.244h-0.581v4.239h0.606v-2.579h0.011l0.593 1.823h0.302l0.598-1.823h0.011v2.579h0.606z"></path>
<path d="M17.013 26.027c-0.093-0.105-0.211-0.184-0.343-0.232-0.142-0.046-0.29-0.068-0.439-0.066h-0.9v4.239h0.604v-1.656h0.311c0.189 0.009 0.376-0.031 0.545-0.116 0.137-0.076 0.252-0.188 0.332-0.324 0.070-0.113 0.117-0.238 0.139-0.369 0.024-0.16 0.035-0.321 0.033-0.482 0.006-0.204-0.014-0.407-0.059-0.606-0.040-0.147-0.117-0.281-0.223-0.39v0zM16.701 27.319c-0.003 0.077-0.022 0.152-0.056 0.221-0.035 0.065-0.089 0.117-0.156 0.149-0.089 0.040-0.187 0.058-0.285 0.053h-0.275v-1.441h0.311c0.094-0.005 0.187 0.014 0.272 0.053 0.062 0.036 0.112 0.091 0.142 0.157 0.033 0.074 0.051 0.155 0.053 0.236 0 0.089 0 0.183 0 0.282s0.006 0.2 0 0.291h-0.006z"></path>
<path d="M19.874 25.73h-0.495l-0.934 4.239h0.604l0.177-0.911h0.823l0.177 0.911h0.604l-0.957-4.239zM19.317 28.481l0.297-1.537h0.011l0.296 1.537h-0.604z"></path>
<path d="M23.777 28.284h-0.011l-0.912-2.554h-0.581v4.239h0.604v-2.549h0.012l0.923 2.549h0.568v-4.239h-0.604v2.554z"></path>
<path d="M27.468 25.73l-0.486 1.685h-0.012l-0.486-1.685h-0.64l0.83 2.447v1.792h0.604v-1.792l0.83-2.447h-0.64z"></path>
<path d="M3.5 31.166h0.291v0.817h0.198v-0.817h0.29v-0.167h-0.778v0.167z"></path>
<path d="M5.947 30.998l-0.381 0.984h0.21l0.081-0.224h0.392l0.084 0.224h0.215l-0.391-0.984h-0.21zM5.916 31.593l0.134-0.365 0.134 0.365h-0.268z"></path>
<path d="M8.366 31.62h0.227v0.127c-0.066 0.053-0.149 0.082-0.233 0.083-0.040 0.002-0.079-0.005-0.116-0.021s-0.068-0.041-0.093-0.072c-0.052-0.075-0.078-0.165-0.073-0.257 0-0.219 0.095-0.329 0.283-0.329 0.050-0.005 0.099 0.008 0.14 0.037s0.070 0.071 0.082 0.12l0.195-0.038c-0.042-0.192-0.181-0.289-0.417-0.289-0.127-0.003-0.25 0.042-0.344 0.127-0.050 0.049-0.088 0.108-0.112 0.174s-0.034 0.135-0.029 0.205c-0.006 0.135 0.039 0.267 0.126 0.369 0.048 0.050 0.107 0.088 0.171 0.113s0.134 0.035 0.203 0.031c0.154 0.004 0.304-0.052 0.417-0.157v-0.388h-0.427v0.166z"></path>
<path d="M10.837 30.998h-0.199v0.984h0.69v-0.167h-0.49v-0.817z"></path>
<path d="M12.926 30.998h-0.199v0.984h0.199v-0.984z"></path>
<path d="M14.969 31.656l-0.403-0.657h-0.193v0.984h0.185v-0.643l0.395 0.643h0.198v-0.984h-0.182v0.657z"></path>
<path d="M16.815 31.549h0.49v-0.167h-0.49v-0.216h0.528v-0.167h-0.727v0.984h0.747v-0.167h-0.548v-0.266z"></path>
<path d="M21.292 31.387h-0.388v-0.388h-0.198v0.984h0.198v-0.43h0.388v0.43h0.198v-0.984h-0.198v0.388z"></path>
<path d="M23.149 31.549h0.492v-0.167h-0.492v-0.216h0.529v-0.167h-0.727v0.984h0.746v-0.167h-0.548v-0.266z"></path>
<path d="M25.668 31.549c0.171-0.027 0.258-0.117 0.258-0.274 0.005-0.042-0.001-0.084-0.018-0.123s-0.044-0.072-0.078-0.096c-0.089-0.045-0.189-0.065-0.288-0.058h-0.417v0.984h0.198v-0.412h0.039c0.042-0.003 0.084 0.005 0.123 0.022 0.029 0.018 0.053 0.043 0.070 0.072l0.215 0.313h0.237l-0.12-0.192c-0.053-0.095-0.128-0.176-0.218-0.236v0zM25.469 31.413h-0.146v-0.247h0.156c0.068-0.005 0.136 0.002 0.201 0.023 0.014 0.013 0.026 0.029 0.033 0.046s0.011 0.037 0.010 0.056c-0.001 0.019-0.006 0.038-0.015 0.055s-0.022 0.032-0.037 0.043c-0.065 0.020-0.133 0.028-0.201 0.023v0z"></path>
<path d="M27.567 31.549h0.49v-0.167h-0.49v-0.216h0.529v-0.167h-0.729v0.984h0.747v-0.167h-0.548v-0.266z"></path>
</symbol>
<symbol id="icon-group-4" viewBox="0 0 32 32">
<path d="M7.418 12.705h-0.001c-1.001 0-1.812 0.721-1.812 1.61v0.001c0 0.889 0.811 1.61 1.812 1.61h0.001c1.001 0 1.812-0.721 1.812-1.61v-0.001c0-0.889-0.811-1.61-1.812-1.61z"></path>
<path d="M20.791 12.19c-0.003-1.235-0.556-2.419-1.539-3.292s-2.314-1.365-3.704-1.368v0c-1.39 0.002-2.723 0.494-3.706 1.367s-1.537 2.058-1.54 3.293v0 6.811c0 0 10.488-1.038 10.489-6.81v-0.001z"></path>
<path d="M1.932 21.236c0.003 0.86 0.388 1.683 1.072 2.291s1.61 0.95 2.577 0.953v0c0.967-0.003 1.893-0.345 2.577-0.953s1.069-1.431 1.072-2.29v0-4.739c0 0-7.298 0.723-7.298 4.738zM5.581 22.086c-0.189 0-0.373-0.050-0.531-0.143s-0.279-0.226-0.352-0.381c-0.073-0.155-0.091-0.326-0.055-0.491s0.128-0.316 0.261-0.435 0.304-0.2 0.489-0.233c0.185-0.033 0.378-0.016 0.552 0.048s0.324 0.173 0.429 0.313c0.105 0.139 0.161 0.304 0.161 0.472 0 0.112-0.024 0.223-0.072 0.326s-0.118 0.198-0.207 0.277c-0.089 0.079-0.194 0.142-0.31 0.185s-0.241 0.065-0.366 0.065v-0.003z"></path>
<path d="M12.956 21.618h-0.704v0.727h-0.367v-1.78h1.159v0.297h-0.792v0.46h0.704v0.296zM14.719 21.496c0 0.175-0.031 0.329-0.093 0.461s-0.151 0.234-0.266 0.306c-0.115 0.072-0.247 0.108-0.396 0.108-0.148 0-0.279-0.035-0.395-0.107s-0.205-0.172-0.269-0.303c-0.064-0.132-0.096-0.283-0.097-0.455v-0.088c0-0.175 0.031-0.329 0.094-0.462s0.153-0.236 0.268-0.307c0.116-0.072 0.248-0.108 0.396-0.108s0.28 0.036 0.395 0.108c0.116 0.071 0.205 0.173 0.268 0.307 0.064 0.133 0.095 0.287 0.095 0.461v0.080zM14.347 21.415c0-0.187-0.033-0.328-0.1-0.425s-0.162-0.146-0.286-0.146c-0.123 0-0.218 0.048-0.285 0.144s-0.101 0.236-0.101 0.42v0.087c0 0.182 0.033 0.323 0.1 0.423s0.163 0.15 0.289 0.15c0.123 0 0.218-0.048 0.283-0.144s0.099-0.238 0.1-0.423v-0.087zM15.908 21.878c0-0.069-0.025-0.122-0.074-0.159s-0.137-0.077-0.264-0.117c-0.127-0.042-0.228-0.082-0.302-0.122-0.202-0.109-0.303-0.256-0.303-0.441 0-0.096 0.027-0.182 0.081-0.257s0.132-0.135 0.234-0.177c0.102-0.042 0.216-0.064 0.342-0.064s0.24 0.023 0.34 0.070c0.099 0.046 0.176 0.111 0.231 0.194s0.083 0.18 0.083 0.286h-0.367c0-0.081-0.026-0.145-0.077-0.189s-0.123-0.068-0.217-0.068c-0.089 0-0.159 0.019-0.209 0.058s-0.075 0.087-0.075 0.149c0 0.058 0.029 0.107 0.087 0.146 0.059 0.039 0.145 0.076 0.258 0.11 0.209 0.063 0.361 0.14 0.456 0.234s0.143 0.209 0.143 0.347c0 0.154-0.058 0.275-0.175 0.363s-0.273 0.131-0.471 0.131c-0.137 0-0.261-0.025-0.374-0.075s-0.199-0.119-0.258-0.207c-0.059-0.087-0.088-0.188-0.088-0.303h0.368c0 0.197 0.117 0.295 0.352 0.295 0.087 0 0.155-0.017 0.204-0.052s0.074-0.085 0.074-0.149zM17.865 20.862h-0.545v1.483h-0.367v-1.483h-0.538v-0.297h1.45v0.297zM19.147 21.574h-0.704v0.477h0.826v0.295h-1.193v-1.78h1.191v0.297h-0.824v0.424h0.704v0.287zM20.143 21.694h-0.292v0.652h-0.367v-1.78h0.662c0.21 0 0.372 0.047 0.487 0.14s0.171 0.226 0.171 0.397c0 0.121-0.026 0.223-0.079 0.305s-0.132 0.145-0.238 0.193l0.385 0.727v0.017h-0.394l-0.334-0.652zM19.851 21.397h0.296c0.092 0 0.164-0.023 0.214-0.070s0.076-0.112 0.076-0.194c0-0.084-0.024-0.15-0.072-0.198-0.047-0.048-0.12-0.072-0.219-0.072h-0.295v0.534zM22.073 21.718v0.627h-0.367v-1.78h0.694c0.134 0 0.251 0.025 0.352 0.074s0.18 0.118 0.235 0.209c0.055 0.090 0.082 0.192 0.082 0.307 0 0.174-0.060 0.312-0.18 0.413-0.119 0.1-0.284 0.15-0.495 0.15h-0.322zM22.073 21.421h0.328c0.097 0 0.171-0.023 0.221-0.068 0.051-0.046 0.077-0.111 0.077-0.195 0-0.087-0.026-0.158-0.077-0.211s-0.122-0.081-0.213-0.083h-0.336v0.559zM24.393 21.574h-0.704v0.477h0.826v0.295h-1.193v-1.78h1.191v0.297h-0.824v0.424h0.704v0.287zM26.095 20.862h-0.545v1.483h-0.367v-1.483h-0.538v-0.297h1.45v0.297zM27.376 21.574h-0.704v0.477h0.826v0.295h-1.193v-1.78h1.191v0.297h-0.824v0.424h0.704v0.287zM28.373 21.694h-0.292v0.652h-0.367v-1.78h0.662c0.21 0 0.372 0.047 0.487 0.14s0.171 0.226 0.171 0.397c0 0.121-0.026 0.223-0.079 0.305s-0.132 0.145-0.238 0.193l0.385 0.727v0.017h-0.394l-0.334-0.652zM28.080 21.397h0.296c0.092 0 0.164-0.023 0.214-0.070s0.076-0.112 0.076-0.194c0-0.084-0.024-0.15-0.072-0.198-0.047-0.048-0.12-0.072-0.219-0.072h-0.295v0.534zM30.236 21.878c0-0.069-0.025-0.122-0.074-0.159s-0.137-0.077-0.264-0.117c-0.127-0.042-0.228-0.082-0.302-0.122-0.202-0.109-0.303-0.256-0.303-0.441 0-0.096 0.027-0.182 0.081-0.257s0.132-0.135 0.234-0.177c0.102-0.042 0.216-0.064 0.342-0.064s0.24 0.023 0.34 0.070c0.099 0.046 0.176 0.111 0.231 0.194s0.083 0.18 0.083 0.286h-0.367c0-0.081-0.026-0.145-0.077-0.189s-0.123-0.068-0.217-0.068c-0.090 0-0.159 0.019-0.209 0.058s-0.075 0.087-0.075 0.149c0 0.058 0.029 0.107 0.087 0.146 0.059 0.039 0.145 0.076 0.258 0.11 0.209 0.063 0.361 0.14 0.456 0.234s0.143 0.209 0.143 0.347c0 0.154-0.058 0.275-0.175 0.363s-0.274 0.131-0.471 0.131c-0.137 0-0.262-0.025-0.374-0.075s-0.199-0.119-0.258-0.207c-0.059-0.087-0.088-0.188-0.088-0.303h0.368c0 0.197 0.117 0.295 0.352 0.295 0.087 0 0.155-0.017 0.204-0.052s0.074-0.085 0.074-0.149z"></path>
</symbol>
<symbol id="icon-instagram" viewBox="0 0 32 32">
<path d="M31.969 9.408c-0.075-1.7-0.35-2.869-0.744-3.882-0.406-1.075-1.032-2.038-1.851-2.838-0.8-0.813-1.769-1.444-2.832-1.844-1.019-0.394-2.182-0.669-3.882-0.744-1.713-0.081-2.257-0.1-6.601-0.1s-4.888 0.019-6.595 0.094c-1.7 0.075-2.869 0.35-3.882 0.744-1.075 0.406-2.038 1.031-2.838 1.85-0.813 0.8-1.444 1.769-1.844 2.832-0.394 1.019-0.669 2.182-0.744 3.882-0.081 1.713-0.1 2.257-0.1 6.601s0.019 4.888 0.094 6.595c0.075 1.7 0.35 2.869 0.744 3.882 0.406 1.075 1.038 2.038 1.85 2.838 0.8 0.813 1.769 1.444 2.832 1.844 1.019 0.394 2.182 0.669 3.882 0.744 1.706 0.075 2.25 0.094 6.595 0.094s4.888-0.019 6.595-0.094c1.7-0.075 2.869-0.35 3.882-0.744 2.151-0.832 3.851-2.532 4.682-4.682 0.394-1.019 0.669-2.182 0.744-3.882 0.075-1.707 0.094-2.251 0.094-6.595s-0.006-4.888-0.081-6.595zM29.087 22.473c-0.069 1.563-0.331 2.407-0.55 2.969-0.538 1.394-1.644 2.5-3.038 3.038-0.563 0.219-1.413 0.481-2.969 0.55-1.688 0.075-2.194 0.094-6.464 0.094s-4.782-0.019-6.464-0.094c-1.563-0.069-2.407-0.331-2.969-0.55-0.694-0.256-1.325-0.663-1.838-1.194-0.531-0.519-0.938-1.144-1.194-1.838-0.219-0.563-0.481-1.413-0.55-2.969-0.075-1.688-0.094-2.194-0.094-6.464s0.019-4.782 0.094-6.464c0.069-1.563 0.331-2.407 0.55-2.969 0.256-0.694 0.663-1.325 1.2-1.838 0.519-0.531 1.144-0.938 1.838-1.194 0.563-0.219 1.413-0.481 2.969-0.55 1.688-0.075 2.194-0.094 6.464-0.094 4.276 0 4.782 0.019 6.464 0.094 1.563 0.069 2.407 0.331 2.969 0.55 0.694 0.256 1.325 0.662 1.838 1.194 0.531 0.519 0.938 1.144 1.194 1.838 0.219 0.563 0.481 1.413 0.55 2.969 0.075 1.688 0.094 2.194 0.094 6.464s-0.019 4.77-0.094 6.458z"></path>
<path d="M16.059 7.783c-4.538 0-8.22 3.682-8.22 8.22s3.682 8.22 8.22 8.22c4.539 0 8.22-3.682 8.22-8.22s-3.682-8.22-8.22-8.22zM16.059 21.335c-2.944 0-5.332-2.388-5.332-5.332s2.388-5.332 5.332-5.332c2.944 0 5.332 2.388 5.332 5.332s-2.388 5.332-5.332 5.332z"></path>
<path d="M26.524 7.458c0 1.060-0.859 1.919-1.919 1.919s-1.919-0.859-1.919-1.919c0-1.060 0.859-1.919 1.919-1.919s1.919 0.859 1.919 1.919z"></path>
</symbol>
<symbol id="icon-instagram" viewBox="0 0 32 32">
<path d="M31.969 9.408c-0.075-1.7-0.35-2.869-0.744-3.882-0.406-1.075-1.032-2.038-1.851-2.838-0.8-0.813-1.769-1.444-2.832-1.844-1.019-0.394-2.182-0.669-3.882-0.744-1.713-0.081-2.257-0.1-6.601-0.1s-4.888 0.019-6.595 0.094c-1.7 0.075-2.869 0.35-3.882 0.744-1.075 0.406-2.038 1.031-2.838 1.85-0.813 0.8-1.444 1.769-1.844 2.832-0.394 1.019-0.669 2.182-0.744 3.882-0.081 1.713-0.1 2.257-0.1 6.601s0.019 4.888 0.094 6.595c0.075 1.7 0.35 2.869 0.744 3.882 0.406 1.075 1.038 2.038 1.85 2.838 0.8 0.813 1.769 1.444 2.832 1.844 1.019 0.394 2.182 0.669 3.882 0.744 1.706 0.075 2.25 0.094 6.595 0.094s4.888-0.019 6.595-0.094c1.7-0.075 2.869-0.35 3.882-0.744 2.151-0.832 3.851-2.532 4.682-4.682 0.394-1.019 0.669-2.182 0.744-3.882 0.075-1.707 0.094-2.251 0.094-6.595s-0.006-4.888-0.081-6.595zM29.087 22.473c-0.069 1.563-0.331 2.407-0.55 2.969-0.538 1.394-1.644 2.5-3.038 3.038-0.563 0.219-1.413 0.481-2.969 0.55-1.688 0.075-2.194 0.094-6.464 0.094s-4.782-0.019-6.464-0.094c-1.563-0.069-2.407-0.331-2.969-0.55-0.694-0.256-1.325-0.663-1.838-1.194-0.531-0.519-0.938-1.144-1.194-1.838-0.219-0.563-0.481-1.413-0.55-2.969-0.075-1.688-0.094-2.194-0.094-6.464s0.019-4.782 0.094-6.464c0.069-1.563 0.331-2.407 0.55-2.969 0.256-0.694 0.663-1.325 1.2-1.838 0.519-0.531 1.144-0.938 1.838-1.194 0.563-0.219 1.413-0.481 2.969-0.55 1.688-0.075 2.194-0.094 6.464-0.094 4.276 0 4.782 0.019 6.464 0.094 1.563 0.069 2.407 0.331 2.969 0.55 0.694 0.256 1.325 0.662 1.838 1.194 0.531 0.519 0.938 1.144 1.194 1.838 0.219 0.563 0.481 1.413 0.55 2.969 0.075 1.688 0.094 2.194 0.094 6.464s-0.019 4.77-0.094 6.458z"></path>
<path d="M16.059 7.783c-4.538 0-8.22 3.682-8.22 8.22s3.682 8.22 8.22 8.22c4.539 0 8.22-3.682 8.22-8.22s-3.682-8.22-8.22-8.22zM16.059 21.335c-2.944 0-5.332-2.388-5.332-5.332s2.388-5.332 5.332-5.332c2.944 0 5.332 2.388 5.332 5.332s-2.388 5.332-5.332 5.332z"></path>
<path d="M26.524 7.458c0 1.060-0.859 1.919-1.919 1.919s-1.919-0.859-1.919-1.919c0-1.060 0.859-1.919 1.919-1.919s1.919 0.859 1.919 1.919z"></path>
</symbol>
<symbol id="icon-linkedin" viewBox="0 0 32 32">
<path d="M31.992 32v-0.001h0.008v-11.736c0-5.741-1.236-10.164-7.948-10.164-3.227 0-5.392 1.771-6.276 3.449h-0.093v-2.913h-6.364v21.364h6.627v-10.579c0-2.785 0.528-5.479 3.977-5.479 3.399 0 3.449 3.179 3.449 5.657v10.401h6.62z"></path>
<path d="M0.528 10.636h6.635v21.364h-6.635v-21.364z"></path>
<path d="M3.843 0c-2.121 0-3.843 1.721-3.843 3.843s1.721 3.879 3.843 3.879c2.121 0 3.843-1.757 3.843-3.879-0.001-2.121-1.723-3.843-3.843-3.843v0z"></path>
</symbol>
<symbol id="icon-group-6" viewBox="0 0 32 32">
<path d="M16.794 15.659c-0.139-0.184-0.205-0.402-0.189-0.622v-0.902c0-0.276 0.063-0.486 0.188-0.63s0.34-0.215 0.646-0.215c0.287 0 0.491 0.061 0.611 0.183 0.131 0.156 0.195 0.347 0.181 0.54v0.212h-0.513v-0.215c0.002-0.070-0.003-0.14-0.015-0.21-0.007-0.048-0.033-0.091-0.073-0.125-0.053-0.036-0.119-0.053-0.186-0.049-0.070-0.005-0.14 0.014-0.195 0.051-0.045 0.037-0.074 0.085-0.085 0.138-0.015 0.073-0.021 0.148-0.020 0.223v1.094c-0.008 0.106 0.014 0.211 0.066 0.307 0.025 0.032 0.061 0.058 0.103 0.074s0.087 0.022 0.133 0.017c0.066 0.005 0.131-0.013 0.182-0.049 0.042-0.036 0.069-0.083 0.077-0.133 0.012-0.073 0.018-0.146 0.016-0.219v-0.222h0.513v0.203c0.014 0.2-0.048 0.4-0.177 0.567-0.118 0.134-0.319 0.201-0.614 0.201s-0.518-0.072-0.645-0.22z"></path>
<path d="M18.931 15.668c-0.13-0.14-0.194-0.345-0.194-0.615v-0.948c0-0.268 0.065-0.471 0.194-0.608s0.346-0.206 0.65-0.206c0.302 0 0.517 0.068 0.647 0.206s0.195 0.34 0.195 0.608v0.948c0 0.268-0.066 0.473-0.198 0.614s-0.346 0.212-0.645 0.212c-0.298 0-0.52-0.072-0.65-0.211zM19.82 15.44c0.046-0.088 0.067-0.184 0.061-0.281v-1.161c0.006-0.095-0.015-0.189-0.061-0.275-0.026-0.033-0.062-0.060-0.105-0.076s-0.089-0.022-0.135-0.016c-0.046-0.006-0.093 0-0.136 0.016s-0.079 0.043-0.105 0.075c-0.047 0.086-0.068 0.181-0.061 0.275v1.167c-0.006 0.097 0.015 0.193 0.061 0.281 0.030 0.030 0.067 0.053 0.108 0.070s0.086 0.024 0.132 0.024c0.045 0 0.091-0.008 0.132-0.024s0.079-0.040 0.108-0.070v-0.006z"></path>
<path d="M21.041 13.318h0.552l0.415 1.75 0.425-1.75h0.538l0.054 2.526h-0.397l-0.043-1.755-0.41 1.755h-0.319l-0.425-1.762-0.039 1.762h-0.401l0.050-2.526z"></path>
<path d="M23.644 13.318h0.861c0.496 0 0.744 0.239 0.744 0.717 0 0.458-0.261 0.686-0.783 0.686h-0.293v1.123h-0.531l0.003-2.526zM24.38 14.398c0.053 0.006 0.106 0.001 0.156-0.012s0.097-0.037 0.136-0.067c0.061-0.085 0.088-0.186 0.077-0.285 0.003-0.077-0.006-0.154-0.025-0.229-0.007-0.025-0.021-0.049-0.039-0.069s-0.041-0.038-0.067-0.051c-0.074-0.030-0.155-0.044-0.237-0.040h-0.206v0.755h0.206z"></path>
<path d="M26.015 13.318h0.57l0.585 2.526h-0.495l-0.116-0.583h-0.509l-0.119 0.583h-0.503l0.585-2.526zM26.502 14.969l-0.199-1.060-0.199 1.060h0.397z"></path>
<path d="M27.643 13.318h0.372l0.712 1.441v-1.441h0.441v2.526h-0.354l-0.716-1.504v1.504h-0.456l0.001-2.526z"></path>
<path d="M30.2 14.881l-0.592-1.559h0.498l0.361 1.001 0.339-1.001h0.488l-0.584 1.559v0.963h-0.51v-0.963z"></path>
<path d="M17.615 16.948v0.132h-0.433v1.026h-0.182v-1.026h-0.436v-0.132h1.050z"></path>
<path d="M18.973 18.106h-0.14c-0.014 0.001-0.028-0.003-0.039-0.011-0.011-0.007-0.018-0.016-0.024-0.027l-0.125-0.275h-0.601l-0.125 0.275c-0.004 0.012-0.010 0.022-0.019 0.031-0.011 0.008-0.025 0.012-0.039 0.011h-0.14l0.531-1.159h0.185l0.538 1.154zM18.094 17.676h0.502l-0.212-0.471c-0.016-0.036-0.029-0.072-0.039-0.109-0.007 0.022-0.014 0.043-0.020 0.061l-0.019 0.049-0.21 0.471z"></path>
<path d="M19.889 17.993c0.033 0.001 0.067 0.001 0.1 0 0.029-0.003 0.057-0.007 0.085-0.014 0.026-0.006 0.052-0.012 0.077-0.021 0.024-0.008 0.047-0.018 0.071-0.029v-0.261h-0.212c-0.005 0-0.011-0-0.015-0.002s-0.009-0.004-0.013-0.007c-0.004-0.003-0.006-0.006-0.008-0.010s-0.003-0.007-0.002-0.012v-0.089h0.412v0.444c-0.034 0.021-0.069 0.039-0.106 0.055-0.038 0.016-0.077 0.029-0.118 0.039-0.043 0.011-0.088 0.019-0.133 0.024-0.052 0.005-0.103 0.007-0.155 0.007-0.091 0-0.182-0.014-0.268-0.043-0.079-0.028-0.152-0.069-0.212-0.121-0.059-0.053-0.106-0.115-0.137-0.183-0.034-0.077-0.050-0.158-0.049-0.24-0.001-0.083 0.015-0.164 0.048-0.242 0.030-0.069 0.077-0.131 0.137-0.183s0.133-0.093 0.212-0.12c0.091-0.030 0.188-0.044 0.285-0.043 0.049-0 0.099 0.003 0.148 0.010 0.043 0.006 0.085 0.016 0.127 0.030 0.037 0.012 0.073 0.027 0.106 0.046 0.032 0.018 0.063 0.038 0.092 0.061l-0.051 0.072c-0.004 0.006-0.010 0.012-0.017 0.016s-0.016 0.006-0.024 0.006c-0.012-0-0.023-0.004-0.033-0.009-0.016-0.007-0.033-0.017-0.052-0.028-0.023-0.012-0.046-0.023-0.071-0.031-0.032-0.011-0.064-0.019-0.098-0.026-0.044-0.007-0.090-0.011-0.135-0.010-0.070-0-0.14 0.010-0.205 0.032-0.059 0.020-0.112 0.052-0.156 0.092-0.044 0.042-0.078 0.091-0.099 0.144-0.048 0.126-0.048 0.261 0 0.386 0.023 0.055 0.060 0.104 0.106 0.146 0.043 0.040 0.097 0.071 0.155 0.092 0.067 0.020 0.139 0.028 0.21 0.023v0z"></path>
<path d="M21.582 17.974h0.58v0.132h-0.758v-1.159h0.182l-0.004 1.026z"></path>
<path d="M22.766 18.106h-0.182v-1.159h0.182v1.159z"></path>
<path d="M23.442 16.953c0.011 0.006 0.020 0.012 0.028 0.021l0.777 0.873c-0.001-0.014-0.001-0.028 0-0.041 0-0.013 0-0.026 0-0.037v-0.825h0.158v1.163h-0.091c-0.013 0.001-0.027-0.001-0.039-0.006-0.011-0.006-0.021-0.013-0.029-0.022l-0.776-0.872c0 0.014 0 0.027 0 0.039s0 0.025 0 0.036v0.825h-0.152v-1.159h0.095c0.010 0 0.020 0.002 0.030 0.006v0z"></path>
<path d="M25.742 16.948v0.128h-0.644v0.382h0.522v0.123h-0.522v0.395h0.644v0.128h-0.831v-1.156h0.831z"></path>
<path d="M6.705 9.794l8.066 1.978v6.929l-8.066-1.977v-6.93zM6.188 9.203v7.857l9.1 2.232v-7.856l-9.1-2.233z"></path>
<path d="M11.065 22.94l-9.101-2.233v-7.857l9.101 2.233v7.858z"></path>
<path d="M6.339 9.705l7.962 1.953-3.386 2.924-7.962-1.954 3.387-2.923zM6.188 9.203l-4.224 3.647 9.101 2.233 4.223-3.647-9.1-2.233z"></path>
<path d="M11.577 22.498l3.711-3.204-3.711-0.91v4.115z"></path>
</symbol>
<symbol id="icon-antenna" viewBox="0 0 30 32">
<path d="M29.859 22.098l-8.443-8.505 0.937-4.615c0.242 0.094 0.499 0.144 0.758 0.146h0.006c1.192 0.014 2.17-0.941 2.184-2.133s-0.941-2.17-2.133-2.184c-1.192-0.014-2.17 0.941-2.184 2.133-0.003 0.255 0.039 0.509 0.125 0.749l-4.96 0.605-8.091-8.133c-0.099-0.101-0.235-0.159-0.377-0.16-0.14 0.001-0.274 0.056-0.373 0.155l-1.513 1.504c-0.208 0.208-0.208 0.546 0 0.754l0.814 0.826c-3.153 5.798-2.129 12.978 2.519 17.663 0.043 0.041 0.092 0.074 0.146 0.098-0.034 0.18-0.051 0.364-0.052 0.547v6.187h-6.4c-1.472 0.002-2.665 1.195-2.667 2.667v1.067c0 0.295 0.239 0.533 0.533 0.533h24.533c0.295 0 0.533-0.239 0.533-0.533v-1.067c-0.002-1.472-1.195-2.665-2.667-2.667h-6.4v-2.742c1.003 0.21 2.024 0.317 3.049 0.32 2.458-0.003 4.877-0.615 7.040-1.783l0.818 0.823c0.099 0.101 0.235 0.159 0.377 0.16 0.14-0.001 0.274-0.056 0.373-0.155l1.513-1.504c0.208-0.208 0.208-0.546 0-0.754zM22.366 6.233c0.418-0.415 1.093-0.414 1.508 0.004s0.414 1.093-0.004 1.508c-0.2 0.199-0.47 0.31-0.752 0.31h-0.003c-0.589-0.003-1.064-0.483-1.061-1.072 0.002-0.282 0.115-0.552 0.314-0.751h-0.002zM21.11 9.738l-0.598 2.946-1.175-1.182 1.774-1.763zM20.504 8.836l-1.92 1.909-1.485-1.493 3.405-0.415zM23.090 28.8c0.884 0 1.6 0.716 1.6 1.6v0.533h-23.467v-0.533c0-0.884 0.716-1.6 1.6-1.6h20.267zM15.623 26.667v1.067h-5.333v-1.067h5.333zM10.29 25.6v-4.053c0-1.294 1.196-2.347 2.667-2.347s2.667 1.053 2.667 2.347v4.053h-5.333zM16.69 23.904v-2.357c0-1.882-1.675-3.413-3.733-3.413-1.331-0.020-2.576 0.657-3.281 1.786-4.058-4.274-4.971-10.645-2.279-15.887l18.602 18.708c-2.872 1.461-6.165 1.873-9.309 1.163zM27.979 23.22l-21.057-21.181 0.755-0.752 7.935 7.98c0.004 0 0.006 0.007 0.010 0.010l13.115 13.191-0.757 0.752z"></path>
</symbol>
<symbol id="icon-clock" viewBox="0 0 31 32">
<path d="M30.84 15.301c-0.002-8.452-6.855-15.303-15.308-15.301s-15.303 6.855-15.301 15.308c0.001 6.658 4.307 12.551 10.649 14.576 0.061 0.019 0.124 0.029 0.187 0.029 0.121-0 0.239-0.032 0.342-0.094 0.135-0.080 0.236-0.207 0.283-0.356l3.865-12.25c1.057-0.005 1.909-0.866 1.903-1.923s-0.866-1.909-1.923-1.903c-0.284 0.001-0.565 0.067-0.82 0.191l-5.106-5.107c-0.253-0.245-0.657-0.238-0.902 0.016-0.239 0.247-0.239 0.639 0 0.886l5.103 5.109c-0.392 0.799-0.168 1.764 0.536 2.309l-3.683 11.673c-7.278-2.681-11.004-10.754-8.323-18.032s10.754-11.004 18.032-8.323 11.004 10.754 8.323 18.032c-1.31 3.556-4.001 6.431-7.462 7.973l-0.398-1.874c-0.073-0.344-0.411-0.565-0.756-0.492-0.109 0.023-0.209 0.074-0.292 0.148l-3.837 3.426c-0.263 0.234-0.287 0.637-0.052 0.9 0.076 0.085 0.174 0.149 0.283 0.184l4.899 1.563c0.335 0.108 0.694-0.077 0.802-0.412 0.034-0.106 0.040-0.219 0.017-0.328l-0.391-1.839c5.664-2.388 9.342-7.942 9.329-14.089zM15.535 14.664c0.352 0 0.638 0.286 0.638 0.638s-0.286 0.638-0.638 0.638c-0.352 0-0.638-0.285-0.638-0.638s0.285-0.638 0.638-0.638zM17.635 29.528l2.184-1.948 0.603 2.84-2.787-0.892z"></path>
</symbol>
<symbol id="icon-graphic" viewBox="0 0 32 32">
<path d="M1.599 28.291h25.587c0.883 0 1.599-0.716 1.599-1.599v-2.132c0-0.883-0.716-1.599-1.599-1.599h-0.533v-13.293l3.028-2.868c0.703 0.346 1.553 0.136 2.013-0.499s0.396-1.508-0.152-2.068-1.42-0.644-2.065-0.198c-0.644 0.446-0.873 1.292-0.542 2.002l-2.281 2.163v-1.23c0-0.883-0.716-1.599-1.599-1.599h-21.322c-0.883 0-1.599 0.716-1.599 1.599v15.992h-0.533c-0.883 0-1.599 0.716-1.599 1.599v2.132c0 0.883 0.716 1.599 1.599 1.599zM30.384 4.837c0.294 0 0.533 0.239 0.533 0.533s-0.239 0.533-0.533 0.533c-0.294 0-0.533-0.239-0.533-0.533s0.239-0.533 0.533-0.533zM3.198 6.969c0-0.294 0.239-0.533 0.533-0.533h21.322c0.294 0 0.533 0.239 0.533 0.533v2.239l-1.066 1.013v-2.186c0-0.294-0.239-0.533-0.533-0.533h-19.19c-0.294 0-0.533 0.239-0.533 0.533v13.326c0 0.294 0.239 0.533 0.533 0.533h19.19c0.294 0 0.533-0.239 0.533-0.533v-9.674l1.066-1.010v12.284h-22.388v-15.992zM7.996 13.899c-0.721-0.002-1.354 0.478-1.546 1.174s0.105 1.433 0.725 1.801c0.62 0.368 1.41 0.276 1.928-0.226l1.853 0.93c0.215 0.108 0.476 0.057 0.636-0.123l3.939-4.431 3.872 2.901c0.208 0.156 0.498 0.139 0.686-0.039l3.365-3.188v8.131h-18.124v-12.26h18.124v2.66l-3.771 3.572-3.904-2.927c-0.222-0.166-0.534-0.135-0.718 0.072l-3.993 4.493-1.493-0.746c0.011-0.064 0.018-0.129 0.020-0.193 0-0.883-0.716-1.599-1.599-1.599zM8.529 15.498c0 0.294-0.239 0.533-0.533 0.533s-0.533-0.239-0.533-0.533c0-0.294 0.239-0.533 0.533-0.533s0.533 0.239 0.533 0.533zM11.727 24.027h5.331v0.533c0 0.294-0.239 0.533-0.533 0.533h-4.264c-0.294 0-0.533-0.239-0.533-0.533v-0.533zM1.066 24.56c0-0.294 0.239-0.533 0.533-0.533h9.062v0.533c0 0.883 0.716 1.599 1.599 1.599h4.264c0.883 0 1.599-0.716 1.599-1.599v-0.533h9.062c0.294 0 0.533 0.239 0.533 0.533v2.132c0 0.294-0.239 0.533-0.533 0.533h-25.587c-0.294 0-0.533-0.239-0.533-0.533v-2.132z"></path>
</symbol>
<symbol id="icon-astronaut" viewBox="0 0 32 32">
<path d="M29.935 13.626c-0.33-0.445-0.814-0.731-1.364-0.809-0.552-0.078-1.097 0.067-1.537 0.404l-1.437 1.102-2.178 1.626-1.558-0.621c2.779-1.247 4.721-4.026 4.721-7.253 0-4.387-3.583-7.956-7.988-7.956s-7.988 3.569-7.988 7.956c0 1.59 0.476 3.069 1.285 4.313l-3.172-0.028c-0.002 0-0.004 0-0.005 0-0.010 0-0.018 0.005-0.027 0.005-0.061 0.002-0.12 0.015-0.178 0.036-0.015 0.005-0.030 0.009-0.044 0.015-0.007 0.003-0.015 0.004-0.022 0.007l-3.71 1.832c-0.001 0-0.001 0-0.001 0.001l-2.173 1.045c-0.024 0.010-0.048 0.024-0.072 0.040-0.866 0.577-1.161 1.709-0.687 2.634 0.253 0.492 0.683 0.854 1.212 1.020 0.204 0.064 0.412 0.095 0.619 0.095 0.332 0 0.662-0.081 0.963-0.242l1.593-0.847 2.598-1.342 1.557-0.009-6.245 6.215c-0.001 0.001-0.001 0.001-0.002 0.001l-1.536 1.53c-0.363 0.361-0.562 0.84-0.562 1.351s0.2 0.991 0.562 1.353c0.373 0.371 0.863 0.557 1.353 0.557s0.98-0.186 1.354-0.557l1.508-1.502 1.998-1.491 1.034 1.029-2.022 2.013c-0.001 0.001-0.001 0.001-0.002 0.001l-1.536 1.53c-0.363 0.361-0.562 0.84-0.562 1.351s0.2 0.991 0.562 1.353c0.373 0.371 0.864 0.557 1.354 0.557s0.981-0.186 1.354-0.557l3.995-3.978c0.001-0.001 0.001-0.001 0.001-0.002l1.159-1.148-0.004-0.004c0.007-0.007 0.018-0.010 0.025-0.018l5.928-6.493 3.983 0.567c0.029 0.004 0.058 0.006 0.086 0.006 0.074 0 0.146-0.018 0.215-0.044 0.020-0.007 0.038-0.017 0.057-0.027 0.022-0.011 0.045-0.017 0.066-0.031l3.687-2.448c0.013-0.009 0.021-0.024 0.034-0.034 0.015-0.012 0.033-0.016 0.046-0.029l1.459-1.367c0.759-0.711 0.864-1.877 0.243-2.71zM4.019 17.769c-0.199 0.107-0.425 0.128-0.641 0.059-0.214-0.067-0.388-0.213-0.49-0.411-0.185-0.36-0.078-0.798 0.246-1.035l1.507-0.725 0.515 1.506-1.138 0.605zM8.032 15.672l-1.777 0.918-0.504-1.473 2.326-1.148-0.045 1.703zM25.359 8.074c0 1.054-0.252 2.048-0.687 2.937l-4.798-2.179c-0.050-0.658-0.392-1.234-0.905-1.593l1.68-5.577c2.728 0.868 4.71 3.413 4.71 6.412zM11.831 8.074c0-3.712 3.034-6.732 6.764-6.732 0.29 0 0.574 0.024 0.855 0.060l-1.643 5.455c-0.022-0.001-0.043-0.007-0.066-0.007-1.185 0-2.149 0.961-2.149 2.142s0.964 2.142 2.149 2.142c0.797 0 1.485-0.44 1.857-1.084l4.432 2.014c-1.233 1.66-3.207 2.743-5.436 2.743-3.73 0-6.764-3.020-6.764-6.732zM18.666 8.992c0 0.506-0.415 0.918-0.925 0.918s-0.925-0.412-0.925-0.918c0-0.506 0.415-0.918 0.925-0.918s0.925 0.412 0.925 0.918zM4.402 26.233c-0.271 0.269-0.71 0.268-0.98 0.001-0.13-0.13-0.202-0.302-0.202-0.485s0.072-0.354 0.202-0.483l1.104-1.1 0.977 0.973-1.1 1.096zM8.090 30.518c-0.271 0.269-0.711 0.269-0.981 0.001-0.13-0.13-0.202-0.302-0.202-0.485s0.072-0.354 0.202-0.483l1.105-1.1 0.977 0.973-1.101 1.096zM12.086 26.537c-0.001 0.001-0.001 0.001-0.002 0.001l-2.025 2.020-0.977-0.973 2.023-2.014c0 0 0 0 0-0.001s0.001-0.001 0.002-0.001c0.046-0.046 0.075-0.101 0.103-0.155 0.008-0.016 0.023-0.029 0.030-0.046 0.019-0.047 0.022-0.098 0.029-0.148 0.004-0.028 0.016-0.054 0.016-0.083 0-0.041-0.015-0.081-0.023-0.121-0.007-0.037-0.007-0.074-0.021-0.11-0.023-0.058-0.063-0.108-0.105-0.158-0.012-0.013-0.016-0.031-0.029-0.043 0 0 0 0-0.001 0s-0.001-0.002-0.001-0.002l-1.844-1.836c-0.020-0.020-0.045-0.028-0.067-0.044-0.032-0.025-0.064-0.048-0.1-0.066-0.035-0.017-0.070-0.028-0.107-0.037-0.039-0.011-0.077-0.020-0.118-0.023-0.037-0.002-0.072 0.001-0.11 0.006-0.041 0.005-0.080 0.010-0.119 0.023-0.039 0.012-0.073 0.031-0.108 0.051-0.023 0.013-0.048 0.017-0.070 0.033l-2.035 1.519-1.034-1.029 2.753-2.738 5.004 4.921-1.064 1.055zM19.911 18.485c-0.018-0.002-0.034 0.004-0.052 0.003-0.045-0.002-0.087 0.001-0.132 0.008-0.035 0.006-0.068 0.013-0.101 0.024-0.039 0.013-0.075 0.032-0.111 0.054-0.034 0.021-0.065 0.043-0.095 0.070-0.015 0.013-0.032 0.019-0.046 0.034l-5.391 5.905-4.967-4.885 3.251-3.234c0.239-0.239 0.241-0.626 0.002-0.866-0.121-0.121-0.279-0.18-0.438-0.179v-0.001l-2.546 0.015 0.032-1.845 3.562 0.031c1.452 1.485 3.476 2.411 5.716 2.411 0.502 0 0.991-0.052 1.468-0.141 0.046 0.037 0.091 0.074 0.149 0.097l2.765 1.102 0.379 1.886-3.446-0.49zM24.548 18.69l-0.359-1.788 1.66-1.239 1.086 1.442-2.387 1.585zM28.855 15.441l-0.962 0.901-1.069-1.419 0.954-0.731c0.178-0.137 0.403-0.193 0.623-0.164 0.222 0.031 0.417 0.147 0.551 0.326 0.249 0.335 0.206 0.802-0.098 1.087z"></path>
</symbol>
<symbol id="icon-twitter" viewBox="0 0 32 32">
<path d="M32 6.078c-1.19 0.522-2.458 0.868-3.78 1.036 1.36-0.812 2.398-2.088 2.886-3.626-1.268 0.756-2.668 1.29-4.16 1.588-1.204-1.282-2.92-2.076-4.792-2.076-3.632 0-6.556 2.948-6.556 6.562 0 0.52 0.044 1.020 0.152 1.496-5.454-0.266-10.28-2.88-13.522-6.862-0.566 0.982-0.898 2.106-0.898 3.316 0 2.272 1.17 4.286 2.914 5.452-1.054-0.020-2.088-0.326-2.964-0.808 0 0.020 0 0.046 0 0.072 0 3.188 2.274 5.836 5.256 6.446-0.534 0.146-1.116 0.216-1.72 0.216-0.42 0-0.844-0.024-1.242-0.112 0.85 2.598 3.262 4.508 6.13 4.57-2.232 1.746-5.066 2.798-8.134 2.798-0.538 0-1.054-0.024-1.57-0.090 2.906 1.874 6.35 2.944 10.064 2.944 12.072 0 18.672-10 18.672-18.668 0-0.29-0.010-0.57-0.024-0.848 1.302-0.924 2.396-2.078 3.288-3.406z"></path>
</symbol>
<symbol id="icon-group-3" viewBox="0 0 32 32">
<path d="M6.128 29.119c0.010 0 0.021 0.002 0.030 0.006s0.018 0.009 0.025 0.016l0.142 0.136c-0.11 0.11-0.247 0.198-0.4 0.258-0.179 0.065-0.373 0.097-0.568 0.093-0.183 0.003-0.365-0.026-0.534-0.087-0.153-0.055-0.29-0.139-0.402-0.244-0.115-0.11-0.203-0.238-0.26-0.377-0.062-0.155-0.093-0.319-0.091-0.484-0.003-0.166 0.031-0.33 0.098-0.485 0.062-0.14 0.156-0.269 0.276-0.377 0.122-0.107 0.267-0.19 0.427-0.246 0.175-0.059 0.362-0.088 0.55-0.087 0.175-0.004 0.348 0.023 0.511 0.079 0.141 0.053 0.27 0.127 0.383 0.218l-0.119 0.145c-0.008 0.010-0.018 0.019-0.030 0.026-0.014 0.008-0.031 0.012-0.048 0.011-0.018-0.001-0.036-0.006-0.052-0.016l-0.064-0.039-0.089-0.050c-0.038-0.018-0.078-0.034-0.119-0.048-0.053-0.016-0.107-0.029-0.162-0.039-0.070-0.011-0.141-0.016-0.212-0.016-0.135-0.001-0.27 0.021-0.395 0.065-0.117 0.041-0.223 0.103-0.31 0.182-0.089 0.084-0.157 0.183-0.201 0.291-0.050 0.123-0.075 0.253-0.073 0.384-0.002 0.133 0.023 0.265 0.073 0.39 0.043 0.107 0.11 0.205 0.197 0.289 0.081 0.078 0.182 0.14 0.295 0.179 0.116 0.042 0.241 0.063 0.367 0.062 0.073 0.001 0.145-0.003 0.217-0.012 0.117-0.013 0.23-0.048 0.329-0.104 0.050-0.029 0.097-0.061 0.14-0.096 0.018-0.015 0.042-0.024 0.068-0.025v0z"></path>
<path d="M10.239 28.435c0.002 0.164-0.030 0.327-0.096 0.481-0.058 0.139-0.149 0.267-0.268 0.373s-0.262 0.19-0.421 0.245c-0.348 0.115-0.733 0.115-1.082 0-0.158-0.056-0.3-0.14-0.418-0.246-0.119-0.108-0.211-0.237-0.271-0.377-0.128-0.312-0.128-0.652 0-0.963 0.061-0.14 0.153-0.269 0.271-0.379 0.119-0.103 0.261-0.183 0.418-0.236 0.348-0.118 0.734-0.118 1.082 0 0.158 0.056 0.301 0.139 0.42 0.246 0.117 0.107 0.208 0.234 0.269 0.373 0.066 0.155 0.098 0.319 0.096 0.484zM9.865 28.435c0.003-0.131-0.020-0.262-0.068-0.387-0.040-0.107-0.105-0.205-0.191-0.289-0.083-0.079-0.186-0.142-0.301-0.182-0.253-0.085-0.533-0.085-0.787 0-0.115 0.041-0.217 0.103-0.301 0.182-0.087 0.083-0.152 0.182-0.192 0.289-0.091 0.252-0.091 0.521 0 0.773 0.040 0.107 0.106 0.206 0.192 0.289 0.083 0.079 0.186 0.141 0.301 0.181 0.254 0.082 0.533 0.082 0.787 0 0.114-0.040 0.217-0.102 0.301-0.181 0.085-0.084 0.15-0.182 0.191-0.289 0.048-0.125 0.071-0.255 0.068-0.387v0z"></path>
<path d="M13.043 28.84l0.037 0.087c0.014-0.031 0.027-0.059 0.041-0.087 0.014-0.029 0.029-0.058 0.046-0.085l0.909-1.436c0.018-0.025 0.034-0.040 0.052-0.045 0.024-0.006 0.050-0.009 0.075-0.008h0.269v2.336h-0.318v-1.718c0-0.022 0-0.046 0-0.073-0.002-0.027-0.002-0.054 0-0.080l-0.915 1.456c-0.012 0.022-0.030 0.040-0.054 0.053s-0.050 0.020-0.078 0.019h-0.052c-0.028 0-0.055-0.006-0.078-0.019s-0.042-0.031-0.053-0.053l-0.941-1.466c0 0.028 0 0.056 0 0.083s0 0.053 0 0.074v1.718h-0.308v-2.331h0.269c0.025-0.001 0.051 0.001 0.075 0.008 0.022 0.009 0.040 0.025 0.050 0.045l0.929 1.438c0.018 0.026 0.034 0.055 0.046 0.083v0z"></path>
<path d="M16.465 28.724v0.875h-0.356v-2.333h0.794c0.15-0.003 0.299 0.015 0.443 0.051 0.115 0.028 0.222 0.078 0.313 0.145 0.079 0.063 0.14 0.142 0.178 0.229 0.042 0.095 0.063 0.196 0.061 0.298 0.002 0.102-0.021 0.204-0.066 0.298-0.043 0.090-0.108 0.169-0.192 0.233-0.091 0.070-0.199 0.123-0.315 0.155-0.139 0.038-0.283 0.057-0.429 0.054l-0.431-0.006zM16.465 28.474h0.431c0.093 0.001 0.187-0.011 0.276-0.036 0.073-0.021 0.141-0.056 0.199-0.1 0.053-0.043 0.095-0.096 0.121-0.155 0.029-0.062 0.044-0.129 0.043-0.196 0.004-0.065-0.008-0.13-0.036-0.19s-0.070-0.115-0.124-0.159c-0.136-0.092-0.307-0.137-0.479-0.125h-0.431v0.962z"></path>
<path d="M21.248 29.602h-0.281c-0.028 0.001-0.056-0.007-0.078-0.022-0.020-0.014-0.036-0.033-0.046-0.054l-0.242-0.564h-1.215l-0.251 0.564c-0.009 0.021-0.024 0.039-0.044 0.053-0.023 0.016-0.051 0.024-0.080 0.023h-0.281l1.068-2.336h0.37l1.082 2.336zM19.486 28.735h1.004l-0.424-0.951c-0.032-0.071-0.059-0.145-0.080-0.219l-0.041 0.122c-0.012 0.037-0.027 0.071-0.039 0.099l-0.42 0.949z"></path>
<path d="M22.785 27.277c0.021 0.010 0.039 0.024 0.053 0.042l1.557 1.761c0-0.028 0-0.056 0-0.082s0-0.053 0-0.077v-1.654h0.318v2.336h-0.178c-0.025 0.001-0.050-0.004-0.073-0.014-0.022-0.011-0.041-0.026-0.057-0.043l-1.555-1.76c0.002 0.027 0.002 0.054 0 0.080 0 0.026 0 0.050 0 0.071v1.665h-0.318v-2.336h0.189c0.022-0.001 0.044 0.003 0.064 0.011v0z"></path>
<path d="M27.337 28.673v0.928h-0.356v-0.928l-0.984-1.407h0.318c0.028-0.001 0.055 0.006 0.076 0.020 0.019 0.015 0.036 0.033 0.048 0.053l0.616 0.908c0.025 0.039 0.046 0.074 0.064 0.108s0.032 0.066 0.044 0.099l0.046-0.1c0.017-0.037 0.038-0.072 0.061-0.107l0.607-0.914c0.013-0.018 0.028-0.035 0.046-0.050 0.021-0.016 0.048-0.024 0.076-0.023h0.322l-0.986 1.413z"></path>
<path d="M12.867 23.346c0.155 0.017 0.312 0.031 0.47 0.043 2.401-0.933 4.432-2.46 5.84-4.391s2.129-4.179 2.074-6.463l-2.646-2.299c0.538 2.433 0.286 4.947-0.727 7.262s-2.748 4.34-5.010 5.848v0z"></path>
<path d="M11.922 23.239l0.071 0.012c2.417-1.502 4.26-3.6 5.29-6.022s1.201-5.057 0.489-7.564l-3.769-3.274c1.524 2.692 2.138 5.704 1.769 8.686s-1.704 5.813-3.851 8.162v0z"></path>
<path d="M24.703 15.234c-0.64 2.51-2.195 4.775-4.434 6.456-0.654 0.494-1.359 0.934-2.107 1.314 1.823-0.466 3.499-1.289 4.898-2.406s2.484-2.499 3.172-4.038l-1.528-1.326z"></path>
<path d="M24.104 14.864l-2.176-1.891c-0.042 2.156-0.747 4.262-2.043 6.101s-3.135 3.342-5.326 4.355h0.011c0.488-0 0.976-0.026 1.461-0.076 2.048-0.726 3.856-1.881 5.265-3.363s2.373-3.243 2.808-5.126v0z"></path>
<path d="M12.237 5.010l-2.596-2.259c-2.321 0.779-4.317 2.149-5.727 3.93s-2.168 3.891-2.175 6.052v0c0.009 2.389 0.934 4.707 2.63 6.587s4.064 3.216 6.732 3.795c2.381-2.52 3.775-5.635 3.98-8.891s-0.791-6.484-2.843-9.214v0z"></path>
<path d="M30.102 14.517c-0.009-2.834-1.309-5.55-3.616-7.554s-5.432-3.134-8.694-3.142v0c-1.507-0.001-3.002 0.24-4.408 0.713l15.895 13.81c0.544-1.221 0.823-2.519 0.822-3.828v0z"></path>
</symbol>
<symbol id="icon-group-1" viewBox="0 0 32 32">
<path d="M4.085 0l4.771 4.517-8.856-0.005v21.915h23.149v-8.379l4.766 4.512v-22.559h-23.83zM22.939 17.517l-13.528-12.807h13.528v12.807zM18.739 23.221h-15.076v-14.739h1.066v13.741h14.010v0.998zM7.223 29.344l-0.557 1.147-0.557-1.147h-0.467l0.813 1.529v0.891h0.422v-0.891l0.811-1.529h-0.465zM7.923 31.764l0.196-0.563h0.938l0.198 0.563h0.439l-0.916-2.42h-0.377l-0.914 2.42h0.437zM8.588 29.858l0.351 1.004h-0.701l0.351-1.004zM10.805 30.804c-0.061 0.093-0.091 0.196-0.091 0.307 0 0.204 0.072 0.37 0.214 0.497 0.144 0.126 0.336 0.189 0.575 0.189s0.445-0.065 0.618-0.194l0.136 0.161h0.469l-0.356-0.421c0.14-0.191 0.209-0.435 0.209-0.733h-0.351c0 0.163-0.034 0.311-0.101 0.444l-0.467-0.552 0.165-0.12c0.116-0.084 0.2-0.168 0.251-0.253 0.051-0.085 0.076-0.178 0.076-0.279 0-0.153-0.056-0.281-0.17-0.384-0.112-0.104-0.256-0.156-0.432-0.156-0.195 0-0.35 0.055-0.465 0.166-0.115 0.11-0.173 0.259-0.173 0.449 0 0.078 0.018 0.158 0.055 0.241 0.038 0.083 0.104 0.184 0.198 0.303-0.18 0.129-0.3 0.24-0.361 0.334zM11.897 31.339c-0.119 0.091-0.246 0.136-0.382 0.136-0.121 0-0.217-0.035-0.289-0.105s-0.108-0.161-0.108-0.273c0-0.13 0.067-0.245 0.2-0.346l0.052-0.037 0.529 0.623zM11.463 30.267c-0.114-0.141-0.171-0.258-0.171-0.351 0-0.081 0.023-0.148 0.070-0.201s0.109-0.080 0.188-0.080c0.073 0 0.133 0.023 0.181 0.068 0.048 0.044 0.072 0.098 0.072 0.161 0 0.095-0.034 0.173-0.103 0.234l-0.052 0.042-0.184 0.126zM15.403 31.581c0.166-0.145 0.262-0.347 0.286-0.605h-0.419c-0.022 0.173-0.075 0.296-0.158 0.371s-0.207 0.111-0.372 0.111c-0.181 0-0.318-0.069-0.412-0.206-0.093-0.137-0.14-0.337-0.14-0.598v-0.214c0.002-0.258 0.052-0.454 0.15-0.587 0.099-0.134 0.239-0.201 0.422-0.201 0.157 0 0.277 0.039 0.357 0.116 0.082 0.076 0.133 0.202 0.153 0.376h0.419c-0.027-0.265-0.121-0.47-0.284-0.615s-0.378-0.218-0.645-0.218c-0.198 0-0.373 0.047-0.525 0.141-0.151 0.094-0.267 0.228-0.347 0.402s-0.121 0.375-0.121 0.603v0.226c0.003 0.223 0.045 0.418 0.125 0.587s0.193 0.299 0.339 0.391c0.147 0.091 0.317 0.136 0.51 0.136 0.276 0 0.497-0.072 0.663-0.216zM17.875 31.242c0.082-0.18 0.123-0.388 0.123-0.625v-0.135c-0.001-0.236-0.043-0.443-0.126-0.62-0.083-0.178-0.201-0.315-0.354-0.409-0.152-0.095-0.326-0.143-0.524-0.143s-0.372 0.048-0.525 0.145c-0.152 0.095-0.27 0.233-0.354 0.414-0.083 0.181-0.125 0.389-0.125 0.625v0.136c0.001 0.232 0.043 0.436 0.126 0.613 0.084 0.177 0.203 0.314 0.356 0.411 0.154 0.095 0.329 0.143 0.525 0.143 0.198 0 0.373-0.048 0.525-0.143 0.153-0.096 0.27-0.234 0.352-0.412zM17.424 29.874c0.102 0.143 0.153 0.349 0.153 0.617v0.126c0 0.273-0.050 0.48-0.151 0.622-0.1 0.142-0.243 0.213-0.429 0.213-0.184 0-0.328-0.073-0.432-0.218-0.103-0.145-0.155-0.351-0.155-0.617v-0.14c0.002-0.26 0.054-0.462 0.156-0.603 0.103-0.143 0.245-0.214 0.427-0.214 0.186 0 0.33 0.072 0.43 0.214z"></path>
</symbol>
<symbol id="icon-antenna" viewBox="0 0 30 32">
<path d="M29.859 22.098l-8.443-8.505 0.937-4.615c0.242 0.094 0.499 0.144 0.758 0.146h0.006c1.192 0.014 2.17-0.941 2.184-2.133s-0.941-2.17-2.133-2.184c-1.192-0.014-2.17 0.941-2.184 2.133-0.003 0.255 0.039 0.509 0.125 0.749l-4.96 0.605-8.091-8.133c-0.099-0.101-0.235-0.159-0.377-0.16-0.14 0.001-0.274 0.056-0.373 0.155l-1.513 1.504c-0.208 0.208-0.208 0.546 0 0.754l0.814 0.826c-3.153 5.798-2.129 12.978 2.519 17.663 0.043 0.041 0.092 0.074 0.146 0.098-0.034 0.18-0.051 0.364-0.052 0.547v6.187h-6.4c-1.472 0.002-2.665 1.195-2.667 2.667v1.067c0 0.295 0.239 0.533 0.533 0.533h24.533c0.295 0 0.533-0.239 0.533-0.533v-1.067c-0.002-1.472-1.195-2.665-2.667-2.667h-6.4v-2.742c1.003 0.21 2.024 0.317 3.049 0.32 2.458-0.003 4.877-0.615 7.040-1.783l0.818 0.823c0.099 0.101 0.235 0.159 0.377 0.16 0.14-0.001 0.274-0.056 0.373-0.155l1.513-1.504c0.208-0.208 0.208-0.546 0-0.754zM22.366 6.233c0.418-0.415 1.093-0.414 1.508 0.004s0.414 1.093-0.004 1.508c-0.2 0.199-0.47 0.31-0.752 0.31h-0.003c-0.589-0.003-1.064-0.483-1.061-1.072 0.002-0.282 0.115-0.552 0.314-0.751h-0.002zM21.11 9.738l-0.598 2.946-1.175-1.182 1.774-1.763zM20.504 8.836l-1.92 1.909-1.485-1.493 3.405-0.415zM23.090 28.8c0.884 0 1.6 0.716 1.6 1.6v0.533h-23.467v-0.533c0-0.884 0.716-1.6 1.6-1.6h20.267zM15.623 26.667v1.067h-5.333v-1.067h5.333zM10.29 25.6v-4.053c0-1.294 1.196-2.347 2.667-2.347s2.667 1.053 2.667 2.347v4.053h-5.333zM16.69 23.904v-2.357c0-1.882-1.675-3.413-3.733-3.413-1.331-0.020-2.576 0.657-3.281 1.786-4.058-4.274-4.971-10.645-2.279-15.887l18.602 18.708c-2.872 1.461-6.165 1.873-9.309 1.163zM27.979 23.22l-21.057-21.181 0.755-0.752 7.935 7.98c0.004 0 0.006 0.007 0.010 0.010l13.115 13.191-0.757 0.752z"></path>
</symbol>
<symbol id="icon-clock" viewBox="0 0 31 32">
<path d="M30.84 15.301c-0.002-8.452-6.855-15.303-15.308-15.301s-15.303 6.855-15.301 15.308c0.001 6.658 4.307 12.551 10.649 14.576 0.061 0.019 0.124 0.029 0.187 0.029 0.121-0 0.239-0.032 0.342-0.094 0.135-0.080 0.236-0.207 0.283-0.356l3.865-12.25c1.057-0.005 1.909-0.866 1.903-1.923s-0.866-1.909-1.923-1.903c-0.284 0.001-0.565 0.067-0.82 0.191l-5.106-5.107c-0.253-0.245-0.657-0.238-0.902 0.016-0.239 0.247-0.239 0.639 0 0.886l5.103 5.109c-0.392 0.799-0.168 1.764 0.536 2.309l-3.683 11.673c-7.278-2.681-11.004-10.754-8.323-18.032s10.754-11.004 18.032-8.323 11.004 10.754 8.323 18.032c-1.31 3.556-4.001 6.431-7.462 7.973l-0.398-1.874c-0.073-0.344-0.411-0.565-0.756-0.492-0.109 0.023-0.209 0.074-0.292 0.148l-3.837 3.426c-0.263 0.234-0.287 0.637-0.052 0.9 0.076 0.085 0.174 0.149 0.283 0.184l4.899 1.563c0.335 0.108 0.694-0.077 0.802-0.412 0.034-0.106 0.040-0.219 0.017-0.328l-0.391-1.839c5.664-2.388 9.342-7.942 9.329-14.089zM15.535 14.664c0.352 0 0.638 0.286 0.638 0.638s-0.286 0.638-0.638 0.638c-0.352 0-0.638-0.285-0.638-0.638s0.285-0.638 0.638-0.638zM17.635 29.528l2.184-1.948 0.603 2.84-2.787-0.892z"></path>
</symbol>
<symbol id="icon-graphic" viewBox="0 0 32 32">
<path d="M1.599 28.291h25.587c0.883 0 1.599-0.716 1.599-1.599v-2.132c0-0.883-0.716-1.599-1.599-1.599h-0.533v-13.293l3.028-2.868c0.703 0.346 1.553 0.136 2.013-0.499s0.396-1.508-0.152-2.068-1.42-0.644-2.065-0.198c-0.644 0.446-0.873 1.292-0.542 2.002l-2.281 2.163v-1.23c0-0.883-0.716-1.599-1.599-1.599h-21.322c-0.883 0-1.599 0.716-1.599 1.599v15.992h-0.533c-0.883 0-1.599 0.716-1.599 1.599v2.132c0 0.883 0.716 1.599 1.599 1.599zM30.384 4.837c0.294 0 0.533 0.239 0.533 0.533s-0.239 0.533-0.533 0.533c-0.294 0-0.533-0.239-0.533-0.533s0.239-0.533 0.533-0.533zM3.198 6.969c0-0.294 0.239-0.533 0.533-0.533h21.322c0.294 0 0.533 0.239 0.533 0.533v2.239l-1.066 1.013v-2.186c0-0.294-0.239-0.533-0.533-0.533h-19.19c-0.294 0-0.533 0.239-0.533 0.533v13.326c0 0.294 0.239 0.533 0.533 0.533h19.19c0.294 0 0.533-0.239 0.533-0.533v-9.674l1.066-1.010v12.284h-22.388v-15.992zM7.996 13.899c-0.721-0.002-1.354 0.478-1.546 1.174s0.105 1.433 0.725 1.801c0.62 0.368 1.41 0.276 1.928-0.226l1.853 0.93c0.215 0.108 0.476 0.057 0.636-0.123l3.939-4.431 3.872 2.901c0.208 0.156 0.498 0.139 0.686-0.039l3.365-3.188v8.131h-18.124v-12.26h18.124v2.66l-3.771 3.572-3.904-2.927c-0.222-0.166-0.534-0.135-0.718 0.072l-3.993 4.493-1.493-0.746c0.011-0.064 0.018-0.129 0.020-0.193 0-0.883-0.716-1.599-1.599-1.599zM8.529 15.498c0 0.294-0.239 0.533-0.533 0.533s-0.533-0.239-0.533-0.533c0-0.294 0.239-0.533 0.533-0.533s0.533 0.239 0.533 0.533zM11.727 24.027h5.331v0.533c0 0.294-0.239 0.533-0.533 0.533h-4.264c-0.294 0-0.533-0.239-0.533-0.533v-0.533zM1.066 24.56c0-0.294 0.239-0.533 0.533-0.533h9.062v0.533c0 0.883 0.716 1.599 1.599 1.599h4.264c0.883 0 1.599-0.716 1.599-1.599v-0.533h9.062c0.294 0 0.533 0.239 0.533 0.533v2.132c0 0.294-0.239 0.533-0.533 0.533h-25.587c-0.294 0-0.533-0.239-0.533-0.533v-2.132z"></path>
</symbol>
<symbol id="icon-astronaut" viewBox="0 0 32 32">
<path d="M29.935 13.626c-0.33-0.445-0.814-0.731-1.364-0.809-0.552-0.078-1.097 0.067-1.537 0.404l-1.437 1.102-2.178 1.626-1.558-0.621c2.779-1.247 4.721-4.026 4.721-7.253 0-4.387-3.583-7.956-7.988-7.956s-7.988 3.569-7.988 7.956c0 1.59 0.476 3.069 1.285 4.313l-3.172-0.028c-0.002 0-0.004 0-0.005 0-0.010 0-0.018 0.005-0.027 0.005-0.061 0.002-0.12 0.015-0.178 0.036-0.015 0.005-0.030 0.009-0.044 0.015-0.007 0.003-0.015 0.004-0.022 0.007l-3.71 1.832c-0.001 0-0.001 0-0.001 0.001l-2.173 1.045c-0.024 0.010-0.048 0.024-0.072 0.040-0.866 0.577-1.161 1.709-0.687 2.634 0.253 0.492 0.683 0.854 1.212 1.020 0.204 0.064 0.412 0.095 0.619 0.095 0.332 0 0.662-0.081 0.963-0.242l1.593-0.847 2.598-1.342 1.557-0.009-6.245 6.215c-0.001 0.001-0.001 0.001-0.002 0.001l-1.536 1.53c-0.363 0.361-0.562 0.84-0.562 1.351s0.2 0.991 0.562 1.353c0.373 0.371 0.863 0.557 1.353 0.557s0.98-0.186 1.354-0.557l1.508-1.502 1.998-1.491 1.034 1.029-2.022 2.013c-0.001 0.001-0.001 0.001-0.002 0.001l-1.536 1.53c-0.363 0.361-0.562 0.84-0.562 1.351s0.2 0.991 0.562 1.353c0.373 0.371 0.864 0.557 1.354 0.557s0.981-0.186 1.354-0.557l3.995-3.978c0.001-0.001 0.001-0.001 0.001-0.002l1.159-1.148-0.004-0.004c0.007-0.007 0.018-0.010 0.025-0.018l5.928-6.493 3.983 0.567c0.029 0.004 0.058 0.006 0.086 0.006 0.074 0 0.146-0.018 0.215-0.044 0.020-0.007 0.038-0.017 0.057-0.027 0.022-0.011 0.045-0.017 0.066-0.031l3.687-2.448c0.013-0.009 0.021-0.024 0.034-0.034 0.015-0.012 0.033-0.016 0.046-0.029l1.459-1.367c0.759-0.711 0.864-1.877 0.243-2.71zM4.019 17.769c-0.199 0.107-0.425 0.128-0.641 0.059-0.214-0.067-0.388-0.213-0.49-0.411-0.185-0.36-0.078-0.798 0.246-1.035l1.507-0.725 0.515 1.506-1.138 0.605zM8.032 15.672l-1.777 0.918-0.504-1.473 2.326-1.148-0.045 1.703zM25.359 8.074c0 1.054-0.252 2.048-0.687 2.937l-4.798-2.179c-0.050-0.658-0.392-1.234-0.905-1.593l1.68-5.577c2.728 0.868 4.71 3.413 4.71 6.412zM11.831 8.074c0-3.712 3.034-6.732 6.764-6.732 0.29 0 0.574 0.024 0.855 0.060l-1.643 5.455c-0.022-0.001-0.043-0.007-0.066-0.007-1.185 0-2.149 0.961-2.149 2.142s0.964 2.142 2.149 2.142c0.797 0 1.485-0.44 1.857-1.084l4.432 2.014c-1.233 1.66-3.207 2.743-5.436 2.743-3.73 0-6.764-3.020-6.764-6.732zM18.666 8.992c0 0.506-0.415 0.918-0.925 0.918s-0.925-0.412-0.925-0.918c0-0.506 0.415-0.918 0.925-0.918s0.925 0.412 0.925 0.918zM4.402 26.233c-0.271 0.269-0.71 0.268-0.98 0.001-0.13-0.13-0.202-0.302-0.202-0.485s0.072-0.354 0.202-0.483l1.104-1.1 0.977 0.973-1.1 1.096zM8.090 30.518c-0.271 0.269-0.711 0.269-0.981 0.001-0.13-0.13-0.202-0.302-0.202-0.485s0.072-0.354 0.202-0.483l1.105-1.1 0.977 0.973-1.101 1.096zM12.086 26.537c-0.001 0.001-0.001 0.001-0.002 0.001l-2.025 2.020-0.977-0.973 2.023-2.014c0 0 0 0 0-0.001s0.001-0.001 0.002-0.001c0.046-0.046 0.075-0.101 0.103-0.155 0.008-0.016 0.023-0.029 0.030-0.046 0.019-0.047 0.022-0.098 0.029-0.148 0.004-0.028 0.016-0.054 0.016-0.083 0-0.041-0.015-0.081-0.023-0.121-0.007-0.037-0.007-0.074-0.021-0.11-0.023-0.058-0.063-0.108-0.105-0.158-0.012-0.013-0.016-0.031-0.029-0.043 0 0 0 0-0.001 0s-0.001-0.002-0.001-0.002l-1.844-1.836c-0.020-0.020-0.045-0.028-0.067-0.044-0.032-0.025-0.064-0.048-0.1-0.066-0.035-0.017-0.070-0.028-0.107-0.037-0.039-0.011-0.077-0.020-0.118-0.023-0.037-0.002-0.072 0.001-0.11 0.006-0.041 0.005-0.080 0.010-0.119 0.023-0.039 0.012-0.073 0.031-0.108 0.051-0.023 0.013-0.048 0.017-0.070 0.033l-2.035 1.519-1.034-1.029 2.753-2.738 5.004 4.921-1.064 1.055zM19.911 18.485c-0.018-0.002-0.034 0.004-0.052 0.003-0.045-0.002-0.087 0.001-0.132 0.008-0.035 0.006-0.068 0.013-0.101 0.024-0.039 0.013-0.075 0.032-0.111 0.054-0.034 0.021-0.065 0.043-0.095 0.070-0.015 0.013-0.032 0.019-0.046 0.034l-5.391 5.905-4.967-4.885 3.251-3.234c0.239-0.239 0.241-0.626 0.002-0.866-0.121-0.121-0.279-0.18-0.438-0.179v-0.001l-2.546 0.015 0.032-1.845 3.562 0.031c1.452 1.485 3.476 2.411 5.716 2.411 0.502 0 0.991-0.052 1.468-0.141 0.046 0.037 0.091 0.074 0.149 0.097l2.765 1.102 0.379 1.886-3.446-0.49zM24.548 18.69l-0.359-1.788 1.66-1.239 1.086 1.442-2.387 1.585zM28.855 15.441l-0.962 0.901-1.069-1.419 0.954-0.731c0.178-0.137 0.403-0.193 0.623-0.164 0.222 0.031 0.417 0.147 0.551 0.326 0.249 0.335 0.206 0.802-0.098 1.087z"></path>
</symbol>
<symbol id="icon-twitter" viewBox="0 0 32 32">
<path d="M32 6.078c-1.19 0.522-2.458 0.868-3.78 1.036 1.36-0.812 2.398-2.088 2.886-3.626-1.268 0.756-2.668 1.29-4.16 1.588-1.204-1.282-2.92-2.076-4.792-2.076-3.632 0-6.556 2.948-6.556 6.562 0 0.52 0.044 1.020 0.152 1.496-5.454-0.266-10.28-2.88-13.522-6.862-0.566 0.982-0.898 2.106-0.898 3.316 0 2.272 1.17 4.286 2.914 5.452-1.054-0.020-2.088-0.326-2.964-0.808 0 0.020 0 0.046 0 0.072 0 3.188 2.274 5.836 5.256 6.446-0.534 0.146-1.116 0.216-1.72 0.216-0.42 0-0.844-0.024-1.242-0.112 0.85 2.598 3.262 4.508 6.13 4.57-2.232 1.746-5.066 2.798-8.134 2.798-0.538 0-1.054-0.024-1.57-0.090 2.906 1.874 6.35 2.944 10.064 2.944 12.072 0 18.672-10 18.672-18.668 0-0.29-0.010-0.57-0.024-0.848 1.302-0.924 2.396-2.078 3.288-3.406z"></path>
</symbol>
<symbol id="icon-facebook" viewBox="0 0 32 32">
<path d="M20.529 5.313h2.921v-5.088c-0.504-0.069-2.237-0.225-4.256-0.225-4.212 0-7.097 2.649-7.097 7.519v4.481h-4.648v5.688h4.648v14.312h5.699v-14.311h4.46l0.708-5.688h-5.169v-3.919c0.001-1.644 0.444-2.769 2.735-2.769z"></path>
</symbol>
<symbol id="icon-phone" viewBox="0 0 32 32">
<path d="M23 0h-14c-1.654 0-3 1.346-3 3v26c0 1.654 1.346 3 3 3h14c1.654 0 3-1.346 3-3v-26c0-1.654-1.346-3-3-3zM9 2h14c0.552 0 1 0.448 1 1v21h-16v-21c0-0.552 0.448-1 1-1zM23 30h-14c-0.552 0-1-0.448-1-1v-3h16v3c0 0.552-0.448 1-1 1z"></path>
</symbol>
</defs>
</svg>
